<?xml version="1.0" standalone="no"?>
<!DOCTYPE svg PUBLIC "-//W3C//DTD SVG 20010904//EN"
 "http://www.w3.org/TR/2001/REC-SVG-20010904/DTD/svg10.dtd">
<svg version="1.0" xmlns="http://www.w3.org/2000/svg"
 width="260.000000pt" height="260.000000pt" viewBox="0 0 260.000000 260.000000"
 preserveAspectRatio="xMidYMid meet">
<metadata>
Created by potrace 1.11, written by Peter Selinger 2001-2013
</metadata>
<g transform="translate(0.000000,260.000000) scale(0.100000,-0.100000)"
fill="#000000" stroke="none">
<path d="M0 1300 l0 -1300 1300 0 1300 0 0 1300 0 1300 -1300 0 -1300 0 0
-1300z m1914 584 c58 -16 145 -51 156 -63 3 -4 22 -17 43 -31 20 -14 40 -33
43 -42 3 -10 10 -18 15 -18 5 0 9 -7 9 -15 0 -7 6 -18 13 -22 20 -12 70 -120
64 -136 -6 -16 -79 -37 -125 -37 -25 0 -33 7 -52 48 -38 81 -41 86 -86 122
-94 75 -220 93 -350 51 -39 -13 -86 -37 -104 -52 -18 -16 -37 -29 -41 -29 -5
0 -9 -7 -9 -15 0 -7 -6 -18 -12 -22 -12 -7 -22 -23 -47 -70 -34 -66 -51 -158
-51 -281 0 -111 3 -136 27 -207 15 -44 31 -81 35 -83 4 -2 8 -10 8 -17 0 -26
90 -113 147 -141 53 -25 68 -28 173 -28 108 -1 118 1 165 27 59 34 107 78 126
115 7 15 21 38 30 52 9 14 19 42 23 63 4 20 9 37 12 37 31 0 147 -35 151 -46
5 -13 -1 -33 -31 -106 -6 -16 -14 -28 -18 -28 -5 0 -8 -7 -8 -15 0 -26 -88
-126 -138 -157 -21 -12 -39 -25 -42 -30 -3 -4 -41 -19 -83 -33 -111 -36 -262
-36 -376 1 -44 14 -85 32 -92 40 -6 8 -18 14 -25 14 -20 0 -128 110 -145 148
-7 17 -17 32 -20 32 -4 0 -9 8 -12 18 -4 9 -13 35 -22 57 -26 68 -55 224 -55
299 0 96 33 244 71 321 33 68 122 167 184 206 126 78 314 109 449 73z m-926
-511 l-3 -498 -27 -57 c-15 -32 -32 -58 -38 -58 -5 0 -10 -7 -10 -15 0 -8 -7
-15 -15 -15 -7 0 -18 -6 -22 -14 -4 -8 -37 -26 -73 -41 -59 -25 -72 -27 -165
-22 -103 4 -137 15 -201 66 -58 46 -104 153 -104 243 l0 46 66 11 c37 7 67 11
69 9 1 -2 7 -28 13 -58 25 -130 68 -172 176 -173 77 -1 126 26 159 87 22 40
22 47 25 514 l3 472 75 0 75 0 -3 -497z"/>
</g>
</svg>
